<svg width="688" height="163" viewBox="0 0 688 163" fill="none" xmlns="http://www.w3.org/2000/svg">
<path d="M87.41 66.01C87.41 78.7367 82.1967 89.8533 71.77 99.36C61.3433 108.713 48.9233 113.773 34.51 114.54C34.3567 117.147 34.2033 119.14 34.05 120.52C34.05 121.747 34.05 122.82 34.05 123.74C34.05 130.793 35.2 135.777 37.5 138.69C39.9533 141.603 44.3233 143.06 50.61 143.06C57.8167 143.06 64.41 141.45 70.39 138.23C76.5233 134.857 83.5 128.723 91.32 119.83H99.14C90.2467 134.243 80.5867 144.977 70.16 152.03C59.7333 158.93 48.31 162.38 35.89 162.38C24.0833 162.38 15.1133 159.313 8.98 153.18C3 147.047 0.00999994 137.923 0.00999994 125.81C0.00999994 117.07 1.39 107.793 4.15 97.98C6.91 88.1667 10.59 79.4267 15.19 71.76C20.8633 62.56 27.61 55.66 35.43 51.06C43.4033 46.3067 52.2967 43.93 62.11 43.93C70.5433 43.93 76.83 45.77 80.97 49.45C85.2633 52.9767 87.41 58.4967 87.41 66.01ZM63.95 56.12C58.7367 56.12 53.4467 60.7967 48.08 70.15C42.8667 79.35 38.9567 90.4667 36.35 103.5C45.2433 102.887 52.9867 98.8233 59.58 91.31C66.3267 83.6433 69.7 75.0567 69.7 65.55C69.7 62.33 69.24 59.9533 68.32 58.42C67.4 56.8867 65.9433 56.12 63.95 56.12ZM168.268 56.58V58.19L170.798 46L203.918 46L187.358 124.2C187.051 125.58 186.821 126.883 186.668 128.11C186.514 129.183 186.438 130.333 186.438 131.56C186.438 134.933 187.204 137.463 188.738 139.15C190.271 140.683 192.648 141.45 195.868 141.45C199.854 141.45 203.458 139.61 206.678 135.93C209.898 132.097 212.504 126.73 214.498 119.83H224.158C219.251 133.937 212.888 144.593 205.068 151.8C197.248 158.853 188.201 162.38 177.928 162.38C171.334 162.38 166.044 160.54 162.058 156.86C158.224 153.18 156.001 147.967 155.388 141.22C150.634 148.273 145.344 153.563 139.518 157.09C133.844 160.617 127.711 162.38 121.118 162.38C111.611 162.38 104.098 159.16 98.5776 152.72C93.2109 146.28 90.5276 137.157 90.5276 125.35C90.5276 116.763 91.8309 107.793 94.4376 98.44C97.0442 89.0867 100.648 80.5767 105.248 72.91C110.921 63.8633 117.514 56.9633 125.028 52.21C132.541 47.3033 140.744 44.85 149.638 44.85C155.618 44.85 160.218 45.9233 163.438 48.07C166.658 50.0633 168.268 52.9 168.268 56.58ZM166.198 67.85C166.198 65.55 165.354 63.5567 163.668 61.87C161.981 60.03 159.681 59.11 156.768 59.11C148.334 59.11 140.821 66.1633 134.228 80.27C127.788 94.3767 124.568 108.33 124.568 122.13C124.568 128.11 125.411 132.633 127.098 135.7C128.784 138.613 131.774 140.07 136.068 140.07C140.054 140.07 143.888 138.153 147.568 134.32C151.401 130.487 153.931 125.657 155.158 119.83L166.198 67.85ZM222.857 46H230.447L237.347 14.26L271.387 9.65999L263.567 46H277.367L275.527 55.2H261.727L247.007 124.2C246.7 125.58 246.47 126.883 246.317 128.11C246.163 129.183 246.087 130.333 246.087 131.56C246.087 134.627 246.777 136.85 248.157 138.23C249.69 139.457 252.143 140.07 255.517 140.07C259.81 140.07 263.873 138.23 267.707 134.55C271.54 130.717 274.377 125.81 276.217 119.83H285.877C280.97 133.783 274.377 144.363 266.097 151.57C257.817 158.777 248.31 162.38 237.577 162.38C229.91 162.38 223.853 160.003 219.407 155.25C215.113 150.343 212.967 143.52 212.967 134.78C212.967 132.787 213.12 130.563 213.427 128.11C213.733 125.503 214.193 122.743 214.807 119.83L228.607 55.2H221.017L222.857 46ZM350.875 56.58V58.19L353.405 46H386.525L369.965 124.2C369.658 125.58 369.428 126.883 369.275 128.11C369.122 129.183 369.045 130.333 369.045 131.56C369.045 134.933 369.812 137.463 371.345 139.15C372.878 140.683 375.255 141.45 378.475 141.45C382.462 141.45 386.065 139.61 389.285 135.93C392.505 132.097 395.112 126.73 397.105 119.83H406.765C401.858 133.937 395.495 144.593 387.675 151.8C379.855 158.853 370.808 162.38 360.535 162.38C353.942 162.38 348.652 160.54 344.665 156.86C340.832 153.18 338.608 147.967 337.995 141.22C333.242 148.273 327.952 153.563 322.125 157.09C316.452 160.617 310.318 162.38 303.725 162.38C294.218 162.38 286.705 159.16 281.185 152.72C275.818 146.28 273.135 137.157 273.135 125.35C273.135 116.763 274.438 107.793 277.045 98.44C279.652 89.0867 283.255 80.5767 287.855 72.91C293.528 63.8633 300.122 56.9633 307.635 52.21C315.148 47.3033 323.352 44.85 332.245 44.85C338.225 44.85 342.825 45.9233 346.045 48.07C349.265 50.0633 350.875 52.9 350.875 56.58ZM348.805 67.85C348.805 65.55 347.962 63.5567 346.275 61.87C344.588 60.03 342.288 59.11 339.375 59.11C330.942 59.11 323.428 66.1633 316.835 80.27C310.395 94.3767 307.175 108.33 307.175 122.13C307.175 128.11 308.018 132.633 309.705 135.7C311.392 138.613 314.382 140.07 318.675 140.07C322.662 140.07 326.495 138.153 330.175 134.32C334.008 130.487 336.538 125.657 337.765 119.83L348.805 67.85ZM426.432 162.38C416.158 162.38 408.185 159.85 402.512 154.79C396.992 149.577 394.232 142.293 394.232 132.94C394.232 130.793 394.385 128.647 394.692 126.5C394.998 124.353 395.382 122.13 395.842 119.83L420.452 4.6L454.492 -1.09673e-05L443.452 51.75C447.132 49.45 450.352 47.84 453.112 46.92C456.025 45.8467 459.092 45.31 462.312 45.31C471.358 45.31 478.105 48.6067 482.552 55.2C487.152 61.64 489.452 71.4533 489.452 84.64C489.452 93.6867 488.072 102.963 485.312 112.47C482.552 121.977 478.718 130.257 473.812 137.31C468.138 145.59 461.315 151.877 453.342 156.17C445.368 160.31 436.398 162.38 426.432 162.38ZM427.122 129.49C427.122 133.017 428.118 135.7 430.112 137.54C432.258 139.227 435.325 140.07 439.312 140.07C446.212 140.07 452.422 134.013 457.942 121.9C463.462 109.787 466.222 97.06 466.222 83.72C466.222 77.28 465.072 71.99 462.772 67.85C460.625 63.71 457.712 61.64 454.032 61.64C451.578 61.64 448.972 62.0233 446.212 62.79C443.452 63.5567 441.535 64.5533 440.462 65.78L427.812 124.2C427.658 125.12 427.505 126.04 427.352 126.96C427.198 127.88 427.122 128.723 427.122 129.49ZM496.199 134.78C496.199 132.787 496.352 130.563 496.659 128.11C496.966 125.503 497.426 122.743 498.039 119.83L522.649 4.6L556.689 -1.09673e-05L530.239 124.2C529.932 125.58 529.702 126.883 529.549 128.11C529.396 129.183 529.319 130.333 529.319 131.56C529.319 134.627 530.009 136.85 531.389 138.23C532.922 139.457 535.376 140.07 538.749 140.07C543.042 140.07 547.106 138.23 550.939 134.55C554.772 130.717 557.609 125.81 559.449 119.83L569.109 119.83C564.202 133.783 557.609 144.363 549.329 151.57C541.049 158.777 531.542 162.38 520.809 162.38C513.142 162.38 507.086 160.003 502.639 155.25C498.346 150.343 496.199 143.52 496.199 134.78ZM640.174 66.01C640.174 78.7367 634.96 89.8533 624.534 99.36C614.107 108.713 601.687 113.773 587.274 114.54C587.12 117.147 586.967 119.14 586.814 120.52C586.814 121.747 586.814 122.82 586.814 123.74C586.814 130.793 587.964 135.777 590.264 138.69C592.717 141.603 597.087 143.06 603.374 143.06C610.58 143.06 617.174 141.45 623.154 138.23C629.287 134.857 636.264 128.723 644.084 119.83H651.904C643.01 134.243 633.35 144.977 622.924 152.03C612.497 158.93 601.074 162.38 588.654 162.38C576.847 162.38 567.877 159.313 561.744 153.18C555.764 147.047 552.774 137.923 552.774 125.81C552.774 117.07 554.154 107.793 556.914 97.98C559.674 88.1667 563.354 79.4267 567.954 71.76C573.627 62.56 580.374 55.66 588.194 51.06C596.167 46.3067 605.06 43.93 614.874 43.93C623.307 43.93 629.594 45.77 633.734 49.45C638.027 52.9767 640.174 58.4967 640.174 66.01ZM616.714 56.12C611.5 56.12 606.21 60.7967 600.844 70.15C595.63 79.35 591.72 90.4667 589.114 103.5C598.007 102.887 605.75 98.8233 612.344 91.31C619.09 83.6433 622.464 75.0567 622.464 65.55C622.464 62.33 622.004 59.9533 621.084 58.42C620.164 56.8867 618.707 56.12 616.714 56.12ZM687.735 143.75C687.735 148.81 685.895 153.103 682.215 156.63C678.688 160.157 674.395 161.92 669.335 161.92C664.275 161.92 659.982 160.157 656.455 156.63C652.928 153.103 651.165 148.81 651.165 143.75C651.165 138.69 652.928 134.397 656.455 130.87C659.982 127.19 664.275 125.35 669.335 125.35C674.395 125.35 678.688 127.19 682.215 130.87C685.895 134.397 687.735 138.69 687.735 143.75Z" fill="#523939"/>
</svg>
