<svg id="Layer_1" data-name="Layer 1" xmlns="http://www.w3.org/2000/svg" xmlns:xlink="http://www.w3.org/1999/xlink" viewBox="0 0 150.81 227.63"><defs><style>.cls-1,.cls-21{fill:#ff7a59;}.cls-2{fill:#fff;}.cls-3{fill:url(#Gradient_bez_nazwy);}.cls-4{fill:url(#Gradient_bez_nazwy_2);}.cls-5{fill:url(#Gradient_bez_nazwy_3);}.cls-6{fill:url(#Gradient_bez_nazwy_4);}.cls-7{fill:url(#Gradient_bez_nazwy_5);}.cls-8{fill:url(#Gradient_bez_nazwy_6);}.cls-9{fill:url(#Gradient_bez_nazwy_7);}.cls-10{fill:url(#Gradient_bez_nazwy_8);}.cls-11{fill:url(#Gradient_bez_nazwy_9);}.cls-12{fill:url(#Gradient_bez_nazwy_10);}.cls-13{fill:none;}.cls-14{fill:url(#Gradient_bez_nazwy_11);}.cls-15{fill:url(#Gradient_bez_nazwy_12);}.cls-16{fill:url(#Gradient_bez_nazwy_13);}.cls-17{fill:url(#Gradient_bez_nazwy_14);}.cls-18{fill:url(#Gradient_bez_nazwy_15);}.cls-19{fill:url(#Gradient_bez_nazwy_16);}.cls-20{fill:url(#Gradient_bez_nazwy_17);}.cls-21{opacity:0.18;isolation:isolate;}</style><linearGradient id="Gradient_bez_nazwy" x1="375.08" y1="133.93" x2="226.64" y2="88.83" gradientTransform="matrix(1, 0, 0, -1, -29.67, 292.17)" gradientUnits="userSpaceOnUse"><stop offset="0.01"/><stop offset="0.13" stop-opacity="0.69"/><stop offset="1" stop-opacity="0"/></linearGradient><linearGradient id="Gradient_bez_nazwy_2" x1="114.46" y1="119.12" x2="259.76" y2="119.12" gradientTransform="matrix(1, 0, 0, -1, -114.46, 283.6)" gradientUnits="userSpaceOnUse"><stop offset="0.01" stop-color="#fff"/><stop offset="0.13" stop-color="#fff" stop-opacity="0.69"/><stop offset="1" stop-color="#fff" stop-opacity="0"/></linearGradient><linearGradient id="Gradient_bez_nazwy_3" x1="218.01" y1="62.08" x2="220.31" y2="29.52" xlink:href="#Gradient_bez_nazwy"/><linearGradient id="Gradient_bez_nazwy_4" x1="217.04" y1="127.98" x2="214.54" y2="69.43" gradientTransform="matrix(1, 0, 0, -1, -29.67, 292.17)" xlink:href="#Gradient_bez_nazwy_2"/><linearGradient id="Gradient_bez_nazwy_5" x1="222.1" y1="159.26" x2="209.89" y2="44.64" xlink:href="#Gradient_bez_nazwy"/><linearGradient id="Gradient_bez_nazwy_6" x1="159.45" y1="109.32" x2="266.49" y2="109.32" xlink:href="#Gradient_bez_nazwy"/><linearGradient id="Gradient_bez_nazwy_7" x1="212.19" y1="154.52" x2="217.82" y2="89.59" xlink:href="#Gradient_bez_nazwy"/><linearGradient id="Gradient_bez_nazwy_8" x1="233.81" y1="110.93" x2="245.65" y2="110.93" gradientTransform="matrix(1, 0, 0, -1, -29.67, 292.17)" xlink:href="#Gradient_bez_nazwy_2"/><linearGradient id="Gradient_bez_nazwy_9" x1="224.45" y1="110.57" x2="241.59" y2="110.57" gradientTransform="matrix(1, 0, 0, -1, -29.67, 292.17)" xlink:href="#Gradient_bez_nazwy_2"/><linearGradient id="Gradient_bez_nazwy_10" x1="180.6" y1="122.23" x2="203.6" y2="122.23" gradientTransform="matrix(1, 0, 0, -1, -29.67, 292.17)" xlink:href="#Gradient_bez_nazwy_2"/><linearGradient id="Gradient_bez_nazwy_11" x1="215.62" y1="176.53" x2="217.73" y2="176.53" xlink:href="#Gradient_bez_nazwy"/><linearGradient id="Gradient_bez_nazwy_12" x1="187.37" y1="182.09" x2="189.91" y2="182.09" xlink:href="#Gradient_bez_nazwy"/><linearGradient id="Gradient_bez_nazwy_13" x1="191.3" y1="176.45" x2="193.71" y2="176.45" xlink:href="#Gradient_bez_nazwy"/><linearGradient id="Gradient_bez_nazwy_14" x1="218.77" y1="162.41" x2="223.43" y2="162.41" xlink:href="#Gradient_bez_nazwy"/><linearGradient id="Gradient_bez_nazwy_15" x1="206.35" y1="151.78" x2="208.03" y2="151.78" xlink:href="#Gradient_bez_nazwy"/><linearGradient id="Gradient_bez_nazwy_16" x1="160" y1="237" x2="265.27" y2="237" gradientTransform="matrix(1, 0, 0, -1, -114.46, 283.6)" xlink:href="#Gradient_bez_nazwy"/><linearGradient id="Gradient_bez_nazwy_17" x1="195.12" y1="241.43" x2="300.39" y2="241.43" gradientTransform="matrix(0.99, -0.12, -0.12, -0.99, -123.42, 307.76)" xlink:href="#Gradient_bez_nazwy"/></defs><title>noodles</title><path class="cls-1" d="M118,190.58l-3.5-5.7H259.77s-9.92,13-14.82,25.7c-1.29,3.33-6.48,30-35.29,31S145,246.05,129.8,216.84a33.64,33.64,0,0,1-1.67-4.35A104.1,104.1,0,0,0,118,190.58Z" transform="translate(-114.46 -20.4)"/><path class="cls-2" d="M118,190.58l-3.5-5.7H259.77s-9.92,13-14.82,25.7c-1.29,3.33-6.48,30-35.29,31S145,246.05,129.8,216.84a33.64,33.64,0,0,1-1.67-4.35A104.1,104.1,0,0,0,118,190.58Z" transform="translate(-114.46 -20.4)"/><path class="cls-3" d="M259.76,184.88s-3,4-6.53,9.64A99.93,99.93,0,0,0,245,210.58c-1.28,3.32-6.4,29.64-34.65,30.94h-.64c-28.81.94-64.64,4.47-79.85-24.74a33.69,33.69,0,0,1-1.68-4.35A104.53,104.53,0,0,0,118,190.53l-3.5-5.69Z" transform="translate(-114.46 -20.4)"/><ellipse class="cls-1" cx="72.65" cy="164.48" rx="72.65" ry="20.67"/><ellipse class="cls-4" cx="72.65" cy="164.48" rx="72.65" ry="20.67"/><path class="cls-1" d="M163.53,240.17s.57,4.69,2.91,5.78,36,4.07,45.73,0c0,0,2.13-1.12,2.47-4.86C214.64,241.08,180.19,244.39,163.53,240.17Z" transform="translate(-114.46 -20.4)"/><path class="cls-5" d="M163.53,240.17s.57,4.69,2.91,5.78,36,4.07,45.73,0c0,0,2.13-1.12,2.47-4.86C214.64,241.08,180.19,244.39,163.53,240.17Z" transform="translate(-114.46 -20.4)"/><ellipse class="cls-1" cx="72.02" cy="164.48" rx="67.54" ry="17.51"/><path class="cls-6" d="M254,184.88c0,2.73-2.41,5.31-6.7,7.61-10.93,5.86-34.06,9.89-60.83,9.89-27.43,0-51-4.23-61.61-10.32-3.8-2.19-5.93-4.62-5.93-7.18,0-9.68,30.23-17.51,67.54-17.51S254,175.17,254,184.88Z" transform="translate(-114.46 -20.4)"/><path class="cls-1" d="M247.33,192.49c-10.93,5.86-34.06,9.89-60.83,9.89-27.43,0-51-4.23-61.61-10.32a4,4,0,0,1,1.2-2.15c2.71-2.72,6.76-4.51,10-6.56a28.08,28.08,0,0,1,29.24-.06c1.55-4.28,5.65-7.25,10-8.58s9-1.24,13.57-1.08c8.18.29,17.26,1.22,22.73,7.31,3.65-4.89,10.7-6,16.66-4.67C235.41,177.84,246.13,184.42,247.33,192.49Z" transform="translate(-114.46 -20.4)"/><path class="cls-7" d="M247.33,192.49c-10.93,5.86-34.06,9.89-60.83,9.89-27.43,0-51-4.23-61.61-10.32a4,4,0,0,1,1.2-2.15c2.71-2.72,6.76-4.51,10-6.56a28.08,28.08,0,0,1,29.24-.06c1.55-4.28,5.65-7.25,10-8.58s9-1.24,13.57-1.08c8.18.29,17.26,1.22,22.73,7.31,3.65-4.89,10.7-6,16.66-4.67C235.41,177.84,246.13,184.42,247.33,192.49Z" transform="translate(-114.46 -20.4)"/><path class="cls-8" d="M165.82,201.63a34.81,34.81,0,0,1-7.41-.8,4.72,4.72,0,0,1-.92-.3,11,11,0,0,1-5.47-.18,4.09,4.09,0,0,1-.49-.18,42.53,42.53,0,0,1-18-4.19c-2.47-1.2-3.73-2.7-3.75-4.46s1.47-3.58,4.11-4.57a33.35,33.35,0,0,1,10.61-1.86,8.22,8.22,0,0,1,3-1.39,21.1,21.1,0,0,1,2.37-.46,4.9,4.9,0,0,1,.62-1.06,8.25,8.25,0,0,1,4-2.76c2.91-1,7.08-1.27,10.06,1.22a8.46,8.46,0,0,1,2.9,5.88,13.09,13.09,0,0,0,3.66-3.68c.32-.49.62-1,.89-1.52l-.49.06a11,11,0,0,1-6-.56c-2.08-1-3.65-3.6-2.67-5.89l.25-.58.63-.08a50.81,50.81,0,0,1,5.23-.33c1.2,0,2.44-.06,3.64-.16,3.36-.28,5.88-1.09,7.69-2.5,2.16-1.68,3.21-4.38,2.55-6.56l2.12-.65c.94,3-.43,6.73-3.31,9l-.34.25h.27c.09-.12.2-.24.3-.35a7.49,7.49,0,0,1,5.88-2.36,7.6,7.6,0,0,1,5.74,2.68,2.23,2.23,0,0,1,.58,1.72,2.3,2.3,0,0,1-1.6,1.69c-1,.39-2,.73-3,1.06a21.21,21.21,0,0,0-6.92,3.29c-.42.35-1.78,1.59-1.53,2.84a2.5,2.5,0,0,0,.07.26,15.12,15.12,0,0,1,3.2-1.45c8.5-2.81,17.81-1.51,25.83.15.49-.17,1-.34,1.49-.49,4.66-1.43,8.78-1.57,12.27-.44a9.84,9.84,0,0,1,5.62,4.49,45.46,45.46,0,0,0,6,.11h1l.2.93a5.88,5.88,0,0,1-2.52,5.78,10.53,10.53,0,0,1-3.66,1.65,8.21,8.21,0,0,1-2.56,1.63c-10.78,4.73-23.17,4-31.55,2.94l-.85-.1a59.07,59.07,0,0,1-9.17-1.32l-1.67-.25a42.39,42.39,0,0,1-6.39,1.61c-.7.26-1.42.51-2.13.74A34.77,34.77,0,0,1,165.82,201.63Zm-3.77-2.46c.84.1,1.7.16,2.55.19-.71-.11-1.41-.23-2.11-.38Zm-10.34-1.41.31.17h.46ZM143,187.37a28.52,28.52,0,0,0-8.32,1.64c-.63.24-2.69,1.12-2.67,2.46,0,.85.85,1.69,2.5,2.49a40.19,40.19,0,0,0,14,3.82,5.83,5.83,0,0,1-.93-1.78,10,10,0,0,1-4.52-6.16,5.34,5.34,0,0,1-.06-2.45Zm22.47,9.87a40.72,40.72,0,0,0,12.37-.14l.81-.31a102.26,102.26,0,0,0-11.85-.93,5.4,5.4,0,0,1-.43.52,9.35,9.35,0,0,1-.9.88Zm51.53-.06-.3.08.62-.1Zm-21.1-.17a62,62,0,0,0,6.68.07,58,58,0,0,1-9.07-1.51,40.4,40.4,0,0,0-4.39.37l-.18.09c2.3.36,4.64.71,7,1Zm-46.33-2.45a11.71,11.71,0,0,0,7.26,1.23c.47-.08.92-.18,1.36-.3l.26-.19a4.66,4.66,0,0,1,1.46-2.58,8.83,8.83,0,0,0-1.68-.85A10.08,10.08,0,0,0,153,191a4,4,0,0,0-3.38,2.75,2.64,2.64,0,0,0-.06.79Zm21.78-5,1.23.64c1.17.61,2.37,1.24,3.56,1.81a51.25,51.25,0,0,0,7.58,2.85l1.24-.37c1-.28,2.12-.51,3.19-.69-1.07-.42-2.12-.87-3.15-1.31l-1.93-.82a20.16,20.16,0,0,1-2-.07c-.69-.07-2.38-.13-3-1.62v-.06c-.57-.14-1.15-.25-1.74-.34a17.26,17.26,0,0,0-4.92,0Zm-3.42,4.06c2.5.06,5,.25,7.5.51l-.24-.11c-1.23-.59-2.46-1.23-3.64-1.85s-2.31-1.21-3.45-1.75a6.12,6.12,0,0,1-.17,3.26Zm28-.36h2.8c2.32.06,4.65.17,7,.28,4.87.23,9.83.46,14.74.23,2.86-1,4.7-2.35,5.57-4h-.32a156.18,156.18,0,0,0-16.62-.22c-2.81.06-5.66.12-8.51.1-1.36.73-2.69,1.49-4,2.25-.77.45-1.55.89-2.35,1.34a11.33,11.33,0,0,0,1.66.08Zm-30-.6c-.22.32-.45.63-.71.94h.38a5.33,5.33,0,0,0,.29-.88Zm-20.44-5.44a2,2,0,0,0-.24.45,3,3,0,0,0,0,1.63,7.31,7.31,0,0,0,2.27,3.79,6.07,6.07,0,0,1,4.09-4,5.07,5.07,0,0,1-1.61-1.68l-.07-.15c-1.5,0-3,0-4.48,0Zm84.12,4.95c-.13.24-.27.47-.43.71h.21A1.38,1.38,0,0,0,229.58,192.17Zm-41.25-.63,1.43.56,1.24.43c1.14-.6,2.27-1.24,3.38-1.87A51.57,51.57,0,0,1,188.33,191.54Zm42-2.37a3.53,3.53,0,0,1,1.45,2.78,6.25,6.25,0,0,0,1.11-.66,4.13,4.13,0,0,0,1.69-2.61c-1.43,0-2.85,0-4.27-.09C230.33,188.82,230.33,189,230.33,189.17Zm-69,1.88.22.16.31-.24Zm22.08-1.58a49.94,49.94,0,0,0,6.23-.35q-2.7-.31-5.35-.87a10,10,0,0,1-3.29-1.22,4.43,4.43,0,0,0-.84,1.25c1.12.39,2.22.8,3.28,1.23Zm-30.56-2.15a7.77,7.77,0,0,0,.9.48,13.81,13.81,0,0,0,9.2.7,42.16,42.16,0,0,0-10.07-1.14Zm20.72-.14a18.91,18.91,0,0,1,2.91.22c.51.08,1,.17,1.52.29a6.38,6.38,0,0,1,1.4-2.22,3.53,3.53,0,0,1-.48-1.25c-.34-1.69.5-3.5,2.3-5a18.44,18.44,0,0,1,5.38-2.9,7.94,7.94,0,0,0-3.82-.94h0c-.1.13-.19.27-.29.42a14.36,14.36,0,0,1-1.14,1.55,11.57,11.57,0,0,1-6.59,3.47l-.38.7c-.43.82-.88,1.67-1.4,2.48a15,15,0,0,1-3.26,3.54,20.19,20.19,0,0,1,3.88-.32Zm38.71-1.69a29.63,29.63,0,0,0-4.46,1,25.14,25.14,0,0,0-2.65,1l3.79-.08c4-.09,8.13-.18,12.24,0-2.33-.44-4.63-1-6.9-1.45Zm-29.18.11a8.7,8.7,0,0,0,1.72.51A71.87,71.87,0,0,0,198,187.49q1.43-.42,2.82-.93c1.5-.54,3-1.17,4.48-1.77l1.17-.49c-6.87-1.22-14.39-1.8-21.22.45a14.65,14.65,0,0,0-2.1.85ZM152.9,183a22.12,22.12,0,0,1,12.15,3.6l.29.2a6.3,6.3,0,0,0-2.1-4.49c-2.27-1.89-5.56-1.67-7.89-.84a7.21,7.21,0,0,0-2.62,1.53Zm69.95,2.38,1.76.3c-.4-.1-.8-.17-1.2-.23Zm-57.92-9a3,3,0,0,0,1.7,2.43,9.26,9.26,0,0,0,4.7.32c.67-.08,1.36-.16,2-.28a14.49,14.49,0,0,1,1.6-2.27,10,10,0,0,1,1.15-1.1,25.31,25.31,0,0,1-3.24.48c-1.27.1-2.54.13-3.77.16s-2.74.08-4.19.22Zm14.79-.35a7.9,7.9,0,0,0-2.93,2,7.73,7.73,0,0,0,2.88-2Zm5.26-2.62a9.84,9.84,0,0,1,3.19,1.23l-.95,1.56,1.74-.6c.95-.33,1.93-.66,2.85-1h0a5.46,5.46,0,0,0-4-1.78,5.74,5.74,0,0,0-2.88.55Z" transform="translate(-114.46 -20.4)"/><path class="cls-1" d="M169.46,200.32a34.81,34.81,0,0,1-7.41-.8,3.67,3.67,0,0,1-.92-.3,11,11,0,0,1-5.47-.18,4.09,4.09,0,0,1-.49-.18,42.53,42.53,0,0,1-18-4.19c-2.47-1.2-3.73-2.7-3.75-4.46s1.47-3.57,4.11-4.57a33.35,33.35,0,0,1,10.61-1.86,8.15,8.15,0,0,1,3-1.39,21.37,21.37,0,0,1,2.36-.46,4.9,4.9,0,0,1,.62-1.06,8.25,8.25,0,0,1,4-2.76c2.91-1.05,7.08-1.27,10.06,1.22a8.46,8.46,0,0,1,2.9,5.88,13.09,13.09,0,0,0,3.66-3.68c.32-.49.62-1,.89-1.52l-.49.06a10.88,10.88,0,0,1-5.95-.56c-2.08-1-3.65-3.6-2.67-5.89l.25-.58.63-.08a50.81,50.81,0,0,1,5.23-.33c1.2,0,2.44-.06,3.64-.16,3.36-.28,5.88-1.09,7.69-2.5,2.16-1.68,3.21-4.38,2.55-6.56l2.12-.65c.94,3-.43,6.73-3.31,9L185,172h.27c.09-.12.2-.23.3-.35a7.49,7.49,0,0,1,5.88-2.36,7.6,7.6,0,0,1,5.74,2.68,2.23,2.23,0,0,1,.58,1.72,2.3,2.3,0,0,1-1.6,1.69c-1,.39-2,.73-2.95,1.06-2.57.88-5,1.7-6.92,3.29-.42.35-1.78,1.59-1.53,2.84a2.5,2.5,0,0,0,.07.26,15.12,15.12,0,0,1,3.2-1.45c8.5-2.81,17.81-1.51,25.83.15.49-.17,1-.34,1.49-.49,4.66-1.43,8.79-1.57,12.27-.44a9.84,9.84,0,0,1,5.62,4.49,45.46,45.46,0,0,0,5.95.11h1l.2.93a5.88,5.88,0,0,1-2.51,5.78,10.58,10.58,0,0,1-3.67,1.65,8.21,8.21,0,0,1-2.56,1.63c-10.78,4.74-23.17,4-31.55,2.94l-.85-.1a60.28,60.28,0,0,1-9.17-1.31l-1.67-.26a42.39,42.39,0,0,1-6.39,1.61c-.7.26-1.42.51-2.13.74A34.71,34.71,0,0,1,169.46,200.32Zm-3.77-2.44c.85.1,1.7.16,2.55.2-.71-.11-1.41-.24-2.11-.39Zm-10.36-1.41.31.17h.46Zm-8.74-10.39a28.52,28.52,0,0,0-8.32,1.64c-.63.24-2.69,1.12-2.67,2.46,0,.85.85,1.69,2.5,2.49a39.92,39.92,0,0,0,14,3.82,5.83,5.83,0,0,1-.93-1.78,10,10,0,0,1-4.52-6.16,5.29,5.29,0,0,1,0-2.47ZM169.06,196a40.72,40.72,0,0,0,12.37-.14l.81-.31a106.88,106.88,0,0,0-11.85-.93,4.24,4.24,0,0,1-.43.52,8.93,8.93,0,0,1-.88.86Zm51.53-.06-.3.08.62-.1Zm-21.1-.17a64.69,64.69,0,0,0,6.68.08,59.22,59.22,0,0,1-9.07-1.52,43.07,43.07,0,0,0-4.39.37l-.18.09c2.32.34,4.66.69,7,1Zm-46.33-2.44a11.59,11.59,0,0,0,8.62.92L162,194a4.66,4.66,0,0,1,1.46-2.58,8.83,8.83,0,0,0-1.68-.85,10.08,10.08,0,0,0-5.22-.83,4.09,4.09,0,0,0-3.38,2.75,2.56,2.56,0,0,0,0,.78Zm21.78-5,1.23.64c1.17.61,2.37,1.24,3.56,1.81a51.29,51.29,0,0,0,7.58,2.86c.41-.14.82-.26,1.24-.38,1-.28,2.12-.51,3.19-.69-1.07-.42-2.12-.87-3.15-1.31l-1.93-.82a18.72,18.72,0,0,1-2-.07c-.64-.07-2.38-.13-3-1.62v-.06c-.57-.14-1.15-.25-1.74-.34a17.54,17.54,0,0,0-5,0Zm-3.42,4.06c2.5.07,5,.25,7.5.51l-.24-.11c-1.23-.59-2.46-1.23-3.64-1.85s-2.31-1.21-3.45-1.75a6.21,6.21,0,0,1-.15,3.23Zm28-.36h2.8c2.32.06,4.65.17,7,.28,4.87.23,9.83.46,14.74.23,2.86-1,4.7-2.35,5.57-4h-.32a156.18,156.18,0,0,0-16.62-.22c-2.81.06-5.66.13-8.51.1-1.36.73-2.69,1.5-4,2.25-.77.45-1.55.9-2.34,1.34.49,0,1.1,0,1.67,0Zm-30-.6c-.22.32-.45.63-.71.94h.38a4.88,4.88,0,0,0,.31-.91Zm-20.44-5.44a2,2,0,0,0-.24.45,3,3,0,0,0,0,1.63,7.31,7.31,0,0,0,2.27,3.79,6.07,6.07,0,0,1,4.09-4,5.07,5.07,0,0,1-1.61-1.68l-.07-.14c-1.48,0-3-.05-4.46,0Zm84.16,4.84c-.13.24-.27.47-.43.71H233a1.38,1.38,0,0,0,.2-.68ZM192,190.2l1.43.56,1.24.44c1.14-.61,2.27-1.25,3.38-1.88a51.66,51.66,0,0,1-6.07.91ZM234,187.87a3.53,3.53,0,0,1,1.45,2.78,6.25,6.25,0,0,0,1.11-.66,4.13,4.13,0,0,0,1.69-2.61c-1.43,0-2.85,0-4.27-.09,0,.22,0,.41,0,.61Zm-69,1.88.22.16.31-.24Zm22.11-1.58a49.94,49.94,0,0,0,6.23-.35c-1.8-.21-3.58-.49-5.35-.87a10,10,0,0,1-3.29-1.22,4.43,4.43,0,0,0-.84,1.25C185,187.36,186.07,187.77,187.13,188.17ZM156.57,186a7.77,7.77,0,0,0,.9.48,13.81,13.81,0,0,0,9.2.7,41.91,41.91,0,0,0-10.1-1.15Zm20.72-.14a18.91,18.91,0,0,1,2.91.22c.51.08,1,.17,1.52.29a6.38,6.38,0,0,1,1.4-2.22,3.53,3.53,0,0,1-.48-1.25c-.34-1.69.5-3.5,2.3-5a18.44,18.44,0,0,1,5.38-2.9,7.94,7.94,0,0,0-3.82-.94h0c-.1.13-.19.27-.29.42a13.14,13.14,0,0,1-1.14,1.55,11.57,11.57,0,0,1-6.59,3.47l-.38.71c-.43.82-.88,1.66-1.4,2.47a15.09,15.09,0,0,1-3.26,3.55,19.54,19.54,0,0,1,3.89-.34Zm38.63-1.71a30.91,30.91,0,0,0-4.46,1,24.18,24.18,0,0,0-2.64,1l3.78-.08c4-.09,8.13-.17,12.24,0-2.33-.44-4.63-.94-6.9-1.45Zm-29.18.12a9.4,9.4,0,0,0,1.72.5,71.87,71.87,0,0,0,13.08,1.38c1-.28,1.89-.59,2.82-.92,1.51-.55,3-1.18,4.48-1.78L210,183c-6.87-1.22-14.39-1.8-21.22.45a12.74,12.74,0,0,0-2,.87Zm-30.25-2.57a22.12,22.12,0,0,1,12.15,3.6l.29.2a6.3,6.3,0,0,0-2.1-4.49c-2.27-1.89-5.56-1.67-7.89-.84a7.21,7.21,0,0,0-2.62,1.53Zm70,2.38,1.76.3c-.39-.1-.8-.17-1.19-.23Zm-57.92-9a2.94,2.94,0,0,0,1.7,2.43,9.18,9.18,0,0,0,4.76.36c.67-.08,1.36-.16,2-.28a13.92,13.92,0,0,1,1.61-2.27,9.88,9.88,0,0,1,1.14-1.1,25.31,25.31,0,0,1-3.24.48c-1.27.1-2.54.13-3.77.17-1.44,0-2.85,0-4.25.18Zm14.79-.35a7.9,7.9,0,0,0-2.93,2,7.75,7.75,0,0,0,2.9-2Zm5.26-2.62a9.84,9.84,0,0,1,3.19,1.23l-1,1.56,1.74-.6c.95-.33,1.93-.66,2.85-1h0a5.49,5.49,0,0,0-4-1.78,5.85,5.85,0,0,0-2.88.56Z" transform="translate(-114.46 -20.4)"/><path class="cls-9" d="M169.46,200.32a34.81,34.81,0,0,1-7.41-.8,3.67,3.67,0,0,1-.92-.3,11,11,0,0,1-5.47-.18,4.09,4.09,0,0,1-.49-.18,42.53,42.53,0,0,1-18-4.19c-2.47-1.2-3.73-2.7-3.75-4.46s1.47-3.57,4.11-4.57a33.35,33.35,0,0,1,10.61-1.86,8.15,8.15,0,0,1,3-1.39,21.37,21.37,0,0,1,2.36-.46,4.9,4.9,0,0,1,.62-1.06,8.25,8.25,0,0,1,4-2.76c2.91-1.05,7.08-1.27,10.06,1.22a8.46,8.46,0,0,1,2.9,5.88,13.09,13.09,0,0,0,3.66-3.68c.32-.49.62-1,.89-1.52l-.49.06a10.88,10.88,0,0,1-5.95-.56c-2.08-1-3.65-3.6-2.67-5.89l.25-.58.63-.08a50.81,50.81,0,0,1,5.23-.33c1.2,0,2.44-.06,3.64-.16,3.36-.28,5.88-1.09,7.69-2.5,2.16-1.68,3.21-4.38,2.55-6.56l2.12-.65c.94,3-.43,6.73-3.31,9L185,172h.27c.09-.12.2-.23.3-.35a7.49,7.49,0,0,1,5.88-2.36,7.6,7.6,0,0,1,5.74,2.68,2.23,2.23,0,0,1,.58,1.72,2.3,2.3,0,0,1-1.6,1.69c-1,.39-2,.73-2.95,1.06-2.57.88-5,1.7-6.92,3.29-.42.35-1.78,1.59-1.53,2.84a2.5,2.5,0,0,0,.07.26,15.12,15.12,0,0,1,3.2-1.45c8.5-2.81,17.81-1.51,25.83.15.49-.17,1-.34,1.49-.49,4.66-1.43,8.79-1.57,12.27-.44a9.84,9.84,0,0,1,5.62,4.49,45.46,45.46,0,0,0,5.95.11h1l.2.93a5.88,5.88,0,0,1-2.51,5.78,10.58,10.58,0,0,1-3.67,1.65,8.21,8.21,0,0,1-2.56,1.63c-10.78,4.74-23.17,4-31.55,2.94l-.85-.1a60.28,60.28,0,0,1-9.17-1.31l-1.67-.26a42.39,42.39,0,0,1-6.39,1.61c-.7.26-1.42.51-2.13.74A34.71,34.71,0,0,1,169.46,200.32Zm-3.77-2.44c.85.1,1.7.16,2.55.2-.71-.11-1.41-.24-2.11-.39Zm-10.36-1.41.31.17h.46Zm-8.74-10.39a28.52,28.52,0,0,0-8.32,1.64c-.63.24-2.69,1.12-2.67,2.46,0,.85.85,1.69,2.5,2.49a39.92,39.92,0,0,0,14,3.82,5.83,5.83,0,0,1-.93-1.78,10,10,0,0,1-4.52-6.16,5.29,5.29,0,0,1,0-2.47ZM169.06,196a40.72,40.72,0,0,0,12.37-.14l.81-.31a106.88,106.88,0,0,0-11.85-.93,4.24,4.24,0,0,1-.43.52,8.93,8.93,0,0,1-.88.86Zm51.53-.06-.3.08.62-.1Zm-21.1-.17a64.69,64.69,0,0,0,6.68.08,59.22,59.22,0,0,1-9.07-1.52,43.07,43.07,0,0,0-4.39.37l-.18.09c2.32.34,4.66.69,7,1Zm-46.33-2.44a11.59,11.59,0,0,0,8.62.92L162,194a4.66,4.66,0,0,1,1.46-2.58,8.83,8.83,0,0,0-1.68-.85,10.08,10.08,0,0,0-5.22-.83,4.09,4.09,0,0,0-3.38,2.75,2.56,2.56,0,0,0,0,.78Zm21.78-5,1.23.64c1.17.61,2.37,1.24,3.56,1.81a51.29,51.29,0,0,0,7.58,2.86c.41-.14.82-.26,1.24-.38,1-.28,2.12-.51,3.19-.69-1.07-.42-2.12-.87-3.15-1.31l-1.93-.82a18.72,18.72,0,0,1-2-.07c-.64-.07-2.38-.13-3-1.62v-.06c-.57-.14-1.15-.25-1.74-.34a17.54,17.54,0,0,0-5,0Zm-3.42,4.06c2.5.07,5,.25,7.5.51l-.24-.11c-1.23-.59-2.46-1.23-3.64-1.85s-2.31-1.21-3.45-1.75a6.21,6.21,0,0,1-.15,3.23Zm28-.36h2.8c2.32.06,4.65.17,7,.28,4.87.23,9.83.46,14.74.23,2.86-1,4.7-2.35,5.57-4h-.32a156.18,156.18,0,0,0-16.62-.22c-2.81.06-5.66.13-8.51.1-1.36.73-2.69,1.5-4,2.25-.77.45-1.55.9-2.34,1.34.49,0,1.1,0,1.67,0Zm-30-.6c-.22.32-.45.63-.71.94h.38a4.88,4.88,0,0,0,.31-.91Zm-20.44-5.44a2,2,0,0,0-.24.45,3,3,0,0,0,0,1.63,7.31,7.31,0,0,0,2.27,3.79,6.07,6.07,0,0,1,4.09-4,5.07,5.07,0,0,1-1.61-1.68l-.07-.14c-1.48,0-3-.05-4.46,0Zm84.16,4.84c-.13.24-.27.47-.43.71H233a1.38,1.38,0,0,0,.2-.68ZM192,190.2l1.43.56,1.24.44c1.14-.61,2.27-1.25,3.38-1.88a51.66,51.66,0,0,1-6.07.91ZM234,187.87a3.53,3.53,0,0,1,1.45,2.78,6.25,6.25,0,0,0,1.11-.66,4.13,4.13,0,0,0,1.69-2.61c-1.43,0-2.85,0-4.27-.09,0,.22,0,.41,0,.61Zm-69,1.88.22.16.31-.24Zm22.11-1.58a49.94,49.94,0,0,0,6.23-.35c-1.8-.21-3.58-.49-5.35-.87a10,10,0,0,1-3.29-1.22,4.43,4.43,0,0,0-.84,1.25C185,187.36,186.07,187.77,187.13,188.17ZM156.57,186a7.77,7.77,0,0,0,.9.48,13.81,13.81,0,0,0,9.2.7,41.91,41.91,0,0,0-10.1-1.15Zm20.72-.14a18.91,18.91,0,0,1,2.91.22c.51.08,1,.17,1.52.29a6.38,6.38,0,0,1,1.4-2.22,3.53,3.53,0,0,1-.48-1.25c-.34-1.69.5-3.5,2.3-5a18.44,18.44,0,0,1,5.38-2.9,7.94,7.94,0,0,0-3.82-.94h0c-.1.13-.19.27-.29.42a13.14,13.14,0,0,1-1.14,1.55,11.57,11.57,0,0,1-6.59,3.47l-.38.71c-.43.82-.88,1.66-1.4,2.47a15.09,15.09,0,0,1-3.26,3.55,19.54,19.54,0,0,1,3.89-.34Zm38.63-1.71a30.91,30.91,0,0,0-4.46,1,24.18,24.18,0,0,0-2.64,1l3.78-.08c4-.09,8.13-.17,12.24,0-2.33-.44-4.63-.94-6.9-1.45Zm-29.18.12a9.4,9.4,0,0,0,1.72.5,71.87,71.87,0,0,0,13.08,1.38c1-.28,1.89-.59,2.82-.92,1.51-.55,3-1.18,4.48-1.78L210,183c-6.87-1.22-14.39-1.8-21.22.45a12.74,12.74,0,0,0-2,.87Zm-30.25-2.57a22.12,22.12,0,0,1,12.15,3.6l.29.2a6.3,6.3,0,0,0-2.1-4.49c-2.27-1.89-5.56-1.67-7.89-.84a7.21,7.21,0,0,0-2.62,1.53Zm70,2.38,1.76.3c-.39-.1-.8-.17-1.19-.23Zm-57.92-9a2.94,2.94,0,0,0,1.7,2.43,9.18,9.18,0,0,0,4.76.36c.67-.08,1.36-.16,2-.28a13.92,13.92,0,0,1,1.61-2.27,9.88,9.88,0,0,1,1.14-1.1,25.31,25.31,0,0,1-3.24.48c-1.27.1-2.54.13-3.77.17-1.44,0-2.85,0-4.25.18Zm14.79-.35a7.9,7.9,0,0,0-2.93,2,7.75,7.75,0,0,0,2.9-2Zm5.26-2.62a9.84,9.84,0,0,1,3.19,1.23l-1,1.56,1.74-.6c.95-.33,1.93-.66,2.85-1h0a5.49,5.49,0,0,0-4-1.78,5.85,5.85,0,0,0-2.88.56Z" transform="translate(-114.46 -20.4)"/><path class="cls-1" d="M206.38,196.73l-1-.52c3.32-6.3,3.43-14.65.31-22.92-2.85-7.54-7.74-14-12.47-20.32s-9.78-13-12.7-20.55-3.66-15.7-4.18-23.41v-.36c-.39-5.8-.79-11.79-3.75-16.67-.88-1.45-2.46-3-4-2.51-1.93.58-2,3.56-1.87,5.28l1.41,18.7c.66,8.8,1.34,17.9,4.41,26.32a97.42,97.42,0,0,0,4.69,10.3c1.56,3.13,3.19,6.36,4.46,9.69,3.18,8.33,3.27,16.07.25,21.8-.33.61-.69,1.23-1,1.86-1.59,2.74-3.23,5.56-2,8.05l-1,.51c-1.56-3,.32-6.26,2-9.12.36-.61.72-1.22,1-1.82,3.87-7.35,1.47-16.24-.3-20.88a105.24,105.24,0,0,0-4.42-9.59,99.35,99.35,0,0,1-4.74-10.4c-3.12-8.57-3.81-17.74-4.47-26.62l-1.41-18.7c-.26-3.55.68-5.83,2.66-6.42,2.16-.65,4.13,1.12,5.27,3,3.11,5.11,3.51,11.25,3.91,17.18V109c.51,7.62,1.25,15.67,4.11,23.08s7.79,14,12.54,20.28c4.56,6,9.72,12.91,12.63,20.6C210,181.46,209.84,190.17,206.38,196.73Z" transform="translate(-114.46 -20.4)"/><path class="cls-1" d="M199.33,195.26l-.93-.61c4-6.09,4.56-14.8,1.52-23.28-2.79-7.79-8.1-14.71-12.79-20.81-5-6.51-10.16-13.24-13-21.06C172,123.61,171,116.81,171,108.11v-2.8c.07-4.65.14-9.46-1.15-13.93l1.07-.31c1.33,4.63,1.26,9.52,1.19,14.26v2.79c0,8.56.95,15.23,3.07,21,2.81,7.67,7.93,14.33,12.87,20.77,4.74,6.17,10.1,13.16,12.95,21.11C204.12,179.81,203.51,188.88,199.33,195.26Z" transform="translate(-114.46 -20.4)"/><path class="cls-1" d="M187.24,183.94l-1.06-.34c2.09-6.63,1.4-14,.79-20.51-.68-7.28-1.38-14.81-3.95-21.77-.79-2.12-1.77-4.22-2.71-6.26s-2-4.29-2.8-6.52c-2.47-6.76-3.16-14-3.82-21l-1.21-12.72,1.11-.1,1.21,12.71c.65,6.92,1.34,14.08,3.75,20.71.8,2.19,1.8,4.35,2.77,6.43s1.94,4.18,2.74,6.34c2.62,7.11,3.33,14.71,4,22.06C188.7,169.6,189.4,177.09,187.24,183.94Z" transform="translate(-114.46 -20.4)"/><path class="cls-1" d="M171.67,183l-.86-.71a29.13,29.13,0,0,0,6-23,57.88,57.88,0,0,0-1.78-6.88c-.38-1.25-.76-2.5-1.09-3.77a97,97,0,0,1-2.42-15.25c-.87-8.78-1.3-17.71-1.72-26.35-.23-4.73-.47-9.62-.78-14.43a2.56,2.56,0,0,1-.91-2.21.89.89,0,0,1,.92-.63h0a3.41,3.41,0,0,1,2.55,1.66c3.35,4.44,5.09,10,6.63,14.87l0,.16a135.38,135.38,0,0,0,6.94,18.8c1,2,2.06,4,3.11,5.88,1.38,2.5,2.81,5.09,4,7.76,2.53,5.68,3.45,10.66,2.81,15.21a37.93,37.93,0,0,1-2.78,8.89c-.41,1-.82,2-1.2,3.05-1.81,4.9-2.14,8.65-1,11.82l-1,.36c-1.2-3.42-.87-7.41,1-12.57.38-1,.79-2,1.21-3.08a37.23,37.23,0,0,0,2.71-8.62c.61-4.34-.28-9.12-2.73-14.61-1.17-2.62-2.58-5.19-4-7.68-1.06-1.92-2.16-3.91-3.14-5.93a136.44,136.44,0,0,1-7-19v-.15c-1.51-4.81-3.22-10.25-6.46-14.54a2.85,2.85,0,0,0-1.49-1.2,2.16,2.16,0,0,0,.68,1l.22.15v.27c.31,4.9.55,9.87.79,14.69.42,8.62.85,17.54,1.72,26.29A94.88,94.88,0,0,0,175,148.31c.33,1.25.7,2.49,1.08,3.73a62.53,62.53,0,0,1,1.81,7A30.3,30.3,0,0,1,171.67,183Z" transform="translate(-114.46 -20.4)"/><path class="cls-1" d="M168.57,182.41l-1.08-.27a8.74,8.74,0,0,1,2.46-3.85,8.86,8.86,0,0,1,3.41-2.35,10.45,10.45,0,0,1,3-.37l4.85-.09.1,1.11-4.93.09a9.25,9.25,0,0,0-2.72.32,9.65,9.65,0,0,0-5.14,5.41Z" transform="translate(-114.46 -20.4)"/><path class="cls-1" d="M171.77,184.85,171,184a21.19,21.19,0,0,1,5.23-3.84,9.38,9.38,0,0,1,6.56-.76l-.31,1.07a8.2,8.2,0,0,0-5.77.7A19.91,19.91,0,0,0,171.77,184.85Z" transform="translate(-114.46 -20.4)"/><path class="cls-1" d="M135.64,188.17l-.95-.58a7.6,7.6,0,0,1,3.17-2.52c3.36-1.77,7.16-3.77,11.32-3.77h.15a20.46,20.46,0,0,1,6.37,1.33l-.37,1a19,19,0,0,0-6-1.26c-3.9,0-7.63,1.91-10.91,3.64A6.5,6.5,0,0,0,135.64,188.17Z" transform="translate(-114.46 -20.4)"/><path class="cls-1" d="M141.53,190.5l-.7-.86a24.92,24.92,0,0,1,18.27-5.29l-.12,1.1A23.81,23.81,0,0,0,141.53,190.5Z" transform="translate(-114.46 -20.4)"/><path class="cls-1" d="M234.56,187.7a42.29,42.29,0,0,0-7.89-4.59l-1-.44c-2.41-1-4.68-1.94-7.12-1.28l-3.84,1,6.15-3.7a5,5,0,0,1,1.32-.62,4.58,4.58,0,0,1,1.73,0,27.79,27.79,0,0,1,8,1.73,12.17,12.17,0,0,1,6.28,5.4l-1,.51a11.09,11.09,0,0,0-5.72-4.88,27,27,0,0,0-7.69-1.65,3.83,3.83,0,0,0-1.35,0,4.25,4.25,0,0,0-1,.5l-.66.4a17.14,17.14,0,0,1,5.33,1.57l1,.42a43.18,43.18,0,0,1,8.11,4.71Z" transform="translate(-114.46 -20.4)"/><path class="cls-1" d="M207.12,182.44a11.15,11.15,0,0,1-4.38-.83,20.1,20.1,0,0,1-2.6-1.46l-.58-.37a36,36,0,0,0-6.69-3.26l.38-1a37.53,37.53,0,0,1,6.89,3.36l.6.38a17.14,17.14,0,0,0,2.44,1.37,11.37,11.37,0,0,0,6.65.48,36.69,36.69,0,0,0,6.61-2.22l.42,1a36.43,36.43,0,0,1-6.82,2.28A15.86,15.86,0,0,1,207.12,182.44Z" transform="translate(-114.46 -20.4)"/><path class="cls-1" d="M208,186.76a14.34,14.34,0,0,1-4.32-.57,21.62,21.62,0,0,1-6-3.32,21.17,21.17,0,0,0-5.49-3.12l.34-1.05a22.34,22.34,0,0,1,5.79,3.26,20.36,20.36,0,0,0,5.69,3.21,13.53,13.53,0,0,0,4,.52c2.54,0,4.36-.55,5.56-1.68l.76.81C212.93,186.11,210.86,186.76,208,186.76Z" transform="translate(-114.46 -20.4)"/><path class="cls-1" d="M205.09,190.75a17.54,17.54,0,0,1-1.78-.06A20.58,20.58,0,0,1,190.42,185c-.48-.49-.94-1-1.4-1.53a13.46,13.46,0,0,0-3.57-3.2c-3.09-1.66-6.87-.55-9.51.66-1,.45-2,1-2.92,1.47-3.74,2-7.61,4-11.7,2.94a17,17,0,0,1-3.62-1.54,20.7,20.7,0,0,0-2.47-1.18,17.09,17.09,0,0,0-4.81-.88c-4.12-.28-7.24.16-9.83,1.39-3.19,1.5-5.42,4.39-5.67,7.36l-1.11-.09c.28-3.36,2.76-6.61,6.31-8.28,2.77-1.31,6.06-1.78,10.37-1.49a18.3,18.3,0,0,1,5.13,1,21.26,21.26,0,0,1,2.6,1.23,14.78,14.78,0,0,0,3.37,1.45c3.68.93,7.36-1,10.91-2.84l3-1.5c2.86-1.32,7-2.5,10.5-.63a14.3,14.3,0,0,1,3.87,3.44c.44.51.89,1,1.36,1.48a19.39,19.39,0,0,0,12.19,5.42,26,26,0,0,0,13.28-2.76c.6-.3,1.19-.61,1.78-.92a19,19,0,0,1,6.67-2.52l.13,1.1a18.26,18.26,0,0,0-6.28,2.4c-.6.32-1.21.64-1.81.94A27.61,27.61,0,0,1,205.09,190.75Z" transform="translate(-114.46 -20.4)"/><path class="cls-1" d="M220.68,193.6a33.92,33.92,0,0,1-3.77-.24,28.31,28.31,0,0,1-9.84-2.64,35.28,35.28,0,0,1-5.29-3.61c-.9-.7-1.82-1.42-2.76-2.07-3.2-2.21-6.13-3.15-8.73-2.81a16.29,16.29,0,0,0-4.87,1.78c-.55.27-1.11.54-1.67.79-6.56,2.92-14,2.86-21.1,2.82-7.41,0-15.09-.09-21.61,3.25l-.51-1c6.77-3.47,14.58-3.42,22.13-3.37,7,0,14.3.09,20.64-2.72.55-.25,1.09-.51,1.63-.78a17.37,17.37,0,0,1,5.22-1.88c2.86-.39,6.07.62,9.5,3,1,.67,1.9,1.39,2.81,2.1a34.4,34.4,0,0,0,5.13,3.5,27,27,0,0,0,9.45,2.53c3.5.4,8,.55,11.25-1.81a17.52,17.52,0,0,0,2.22-2,14.5,14.5,0,0,1,3.34-2.7c2.63-1.38,5.77-1.05,8.29-.79l-.12,1.11c-2.37-.25-5.32-.56-7.65.66a13.24,13.24,0,0,0-3.07,2.51,20.47,20.47,0,0,1-2.36,2.1A14.05,14.05,0,0,1,220.68,193.6Z" transform="translate(-114.46 -20.4)"/><path class="cls-1" d="M245.33,184.4c-2.38-4.45-7.16-7.79-13.12-9.15-5.54-1.27-11.29-.79-16.68-.08l-.82.11a32.36,32.36,0,0,1-9.37.34,32.16,32.16,0,0,1-7.34-2.45,45.94,45.94,0,0,0-4.77-1.83A38.93,38.93,0,0,0,182.88,170a27.76,27.76,0,0,0-8.61.81,15.1,15.1,0,0,0-7.85,5.65,2.12,2.12,0,0,1-2.85,1.08c-5-1.47-10.76-3-16.54-2.42-6,.6-11.25,3.71-13.59,8.11l-1-.52c2.51-4.73,8.05-8.06,14.46-8.7,6-.58,11.9,1,17,2.46a1.59,1.59,0,0,0,.86.12c.27-.08.51-.42.74-.74a16.22,16.22,0,0,1,8.45-6.1,28.12,28.12,0,0,1,9-.86,39.43,39.43,0,0,1,10.64,1.37,46.63,46.63,0,0,1,4.84,1.89,31.61,31.61,0,0,0,7.09,2.37,31.58,31.58,0,0,0,9-.34l.83-.11c5.48-.72,11.35-1.21,17.07.1,6.27,1.43,11.32,5,13.85,9.71Z" transform="translate(-114.46 -20.4)"/><path class="cls-1" d="M213.88,174.32a9.74,9.74,0,0,1,2.1,6.61,12.56,12.56,0,0,1-1.52,6.29,7.93,7.93,0,0,1-5,3.87c-.54.11-1.23.09-1.47-.41a1.34,1.34,0,0,1-.08-.56c0-3.2.33-6.49-.61-9.55-.53-1.73-1.46-3.31-2.15-5-.33-.82-1.32-2.76-.85-3.63s2-.58,2.77-.51C209.52,171.69,212.15,172.39,213.88,174.32Z" transform="translate(-114.46 -20.4)"/><path class="cls-10" d="M213.88,174.32a9.74,9.74,0,0,1,2.1,6.61,12.56,12.56,0,0,1-1.52,6.29,7.93,7.93,0,0,1-5,3.87c-.54.11-1.23.09-1.47-.41a1.34,1.34,0,0,1-.08-.56c0-3.2.33-6.49-.61-9.55-.53-1.73-1.46-3.31-2.15-5-.33-.82-1.32-2.76-.85-3.63s2-.58,2.77-.51C209.52,171.69,212.15,172.39,213.88,174.32Z" transform="translate(-114.46 -20.4)"/><path class="cls-1" d="M199.12,180.84a2.19,2.19,0,0,0,.81-.76c.32-.65-.09-1.4-.35-2.07a5.38,5.38,0,0,1,3.47-6.77,4.77,4.77,0,0,1,.65-.17,3.24,3.24,0,0,1,1.77.2,4.52,4.52,0,0,1,1.3,1c2.65,2.78,4.8,6.24,5.11,10.06s-1.56,8-5.08,9.5a3,3,0,0,1-1.47.34c-1.3-.12-2.14-1.46-2.42-2.74a7.2,7.2,0,0,1,1.56-6.11c-1.52-.84-3.4.18-4.64,1.39s-2.38,2.73-4.08,3.12a.65.65,0,0,1-.51,0,.74.74,0,0,1-.24-.48C194.14,183.6,196.33,182.61,199.12,180.84Z" transform="translate(-114.46 -20.4)"/><path class="cls-11" d="M199.12,180.84a2.19,2.19,0,0,0,.81-.76c.32-.65-.09-1.4-.35-2.07a5.38,5.38,0,0,1,3.47-6.77,4.77,4.77,0,0,1,.65-.17,3.24,3.24,0,0,1,1.77.2,4.52,4.52,0,0,1,1.3,1c2.65,2.78,4.8,6.24,5.11,10.06s-1.56,8-5.08,9.5a3,3,0,0,1-1.47.34c-1.3-.12-2.14-1.46-2.42-2.74a7.2,7.2,0,0,1,1.56-6.11c-1.52-.84-3.4.18-4.64,1.39s-2.38,2.73-4.08,3.12a.65.65,0,0,1-.51,0,.74.74,0,0,1-.24-.48C194.14,183.6,196.33,182.61,199.12,180.84Z" transform="translate(-114.46 -20.4)"/><path class="cls-1" d="M163.6,159.11a12.5,12.5,0,0,0-6.74,2,13.63,13.63,0,0,0-3.34,2.61,10.93,10.93,0,0,0-2.58,6.66,7,7,0,0,0,1.39,4.9,5.26,5.26,0,0,0,4.09,1.74,6.5,6.5,0,0,0,4.15-1.72,1.2,1.2,0,0,0,.43-.63,1.41,1.41,0,0,0-.35-1,5.27,5.27,0,0,1-.44-4.59c2.16,3.31,2.91,7.32,4.54,10.91a1.32,1.32,0,0,0,.49.65,1.33,1.33,0,0,0,1-.05l2.91-.95a.76.76,0,0,0,.49-.31.75.75,0,0,0-.13-.71c-.94-1.64-2-3.19-2.88-4.89a9.67,9.67,0,0,1-1.13-5.48l2.8,3.62a1.16,1.16,0,0,0,.45.4,1,1,0,0,0,.78-.15,9.58,9.58,0,0,0,3.84-3.49,2.86,2.86,0,0,0,.54-2.06c-.4-1.73-2.91-3.75-4.31-4.81C167.82,160.53,165.87,159.17,163.6,159.11Z" transform="translate(-114.46 -20.4)"/><path class="cls-12" d="M163.6,159.11a12.5,12.5,0,0,0-6.74,2,13.63,13.63,0,0,0-3.34,2.61,10.93,10.93,0,0,0-2.58,6.66,7,7,0,0,0,1.39,4.9,5.26,5.26,0,0,0,4.09,1.74,6.5,6.5,0,0,0,4.15-1.72,1.2,1.2,0,0,0,.43-.63,1.41,1.41,0,0,0-.35-1,5.27,5.27,0,0,1-.44-4.59c2.16,3.31,2.91,7.32,4.54,10.91a1.32,1.32,0,0,0,.49.65,1.33,1.33,0,0,0,1-.05l2.91-.95a.76.76,0,0,0,.49-.31.75.75,0,0,0-.13-.71c-.94-1.64-2-3.19-2.88-4.89a9.67,9.67,0,0,1-1.13-5.48l2.8,3.62a1.16,1.16,0,0,0,.45.4,1,1,0,0,0,.78-.15,9.58,9.58,0,0,0,3.84-3.49,2.86,2.86,0,0,0,.54-2.06c-.4-1.73-2.91-3.75-4.31-4.81C167.82,160.53,165.87,159.17,163.6,159.11Z" transform="translate(-114.46 -20.4)"/><path class="cls-1" d="M206.06,131.91a8.18,8.18,0,0,1,1,5.06,7.82,7.82,0,0,1-3.39,4.84,23.37,23.37,0,0,1-5.47,2.57,3.5,3.5,0,0,0,3.83,1.9,6.66,6.66,0,0,0,3.82-2.43,12.22,12.22,0,0,0,2.73-10.2c-.71-3.47-3.57-7.44-7.2-8.07C201,127.05,205.18,130.17,206.06,131.91Z" transform="translate(-114.46 -20.4)"/><path class="cls-1" d="M160.8,140.37a8.71,8.71,0,0,0,4.32,4.58,1.66,1.66,0,0,1-1.3.25c-2.38-.31-4.28-2.3-5.19-4.53a20.15,20.15,0,0,1-1.07-7.1,5.79,5.79,0,0,1,.62-3.42,1,1,0,0,1,.79-.54,1.1,1.1,0,0,1,.62.25C162.26,131.89,159.66,137.49,160.8,140.37Z" transform="translate(-114.46 -20.4)"/><path class="cls-1" d="M217.08,153.17l-6.65,1a1.3,1.3,0,0,0-.66.22.92.92,0,0,0,.06,1.29h0a2.56,2.56,0,0,0,1.34.55,12.85,12.85,0,0,0,4,.36,1,1,0,0,0,.66-.29,1.09,1.09,0,0,0,.15-.66v-2.32" transform="translate(-114.46 -20.4)"/><path class="cls-1" d="M131.84,152.7a17.59,17.59,0,0,0-4.26,11.82c1.44-3.75,3-7.62,5.84-10.43S140,150,143.6,148.6L136.17,156a34.09,34.09,0,0,0,7.65-5.75l-.43,1.41c.15-.51,1.1-.81,1.26-1.58a2.6,2.6,0,0,0-.6-2.14c-1-1.21-2-1.05-3.41-.71A17.4,17.4,0,0,0,131.84,152.7Z" transform="translate(-114.46 -20.4)"/><path class="cls-1" d="M227.72,156.47a8.68,8.68,0,0,0,3,2,1,1,0,0,1,.48.29c.24.31,0,.78-.24,1.07s-.62.56-.69.95c-.12.76.86,1.21,1.62,1.14a4.09,4.09,0,0,1,2.25,0,2.51,2.51,0,0,1,1,1.9c.16,1.18.12,2.58-.83,3.3a3.71,3.71,0,0,1-1.43.57,61.31,61.31,0,0,0-8.46,2.83A30.82,30.82,0,0,1,222.6,167a2.55,2.55,0,0,1-.26-2c1-2.22-5.17.52-2.26-2.05.92-.81,2.26-1.18,3.23-2A46.63,46.63,0,0,0,227.72,156.47Z" transform="translate(-114.46 -20.4)"/><path class="cls-1" d="M145.22,119.54a1.15,1.15,0,0,0-.73-.06,1.24,1.24,0,0,0-.44.41,46.85,46.85,0,0,0-3.24,5.11,2.12,2.12,0,0,0-.36,1.17,2.2,2.2,0,0,0,.87,1.31l5.73,5.25a2.48,2.48,0,0,0,1.47.81,1.62,1.62,0,0,0,1.35-.83c.83-1.35.09-3.16.63-4.64a7.84,7.84,0,0,1,1.52-2.18C154.86,122.39,147.79,120.4,145.22,119.54Z" transform="translate(-114.46 -20.4)"/><path class="cls-13" d="M187.94,118.28v.84a.79.79,0,0,0,0-1.06" transform="translate(-114.46 -20.4)"/><path class="cls-13" d="M183.93,131.41a3.06,3.06,0,0,0-.18,1.69.4.4,0,0,0,.17.32.41.41,0,0,0,.42-.1,2.63,2.63,0,0,0,1-1.54,1.22,1.22,0,0,0-.05-.8c-.27-.53-1-.58-1.6-.56" transform="translate(-114.46 -20.4)"/><path class="cls-1" d="M188,115.17a2.63,2.63,0,0,0-.6-.73.87.87,0,0,0-.89-.11,1,1,0,0,0-.41.53,1.92,1.92,0,0,0,.52,2,.48.48,0,0,0,.45.16.55.55,0,0,0,.3-.28,8.6,8.6,0,0,0,.74-1.6" transform="translate(-114.46 -20.4)"/><path class="cls-1" d="M160.07,109.62c.07-.42-.48-.65-.89-.62a1.65,1.65,0,0,0-1.41.87.94.94,0,0,0,.49,1.24.79.79,0,0,0,.22.06,1.26,1.26,0,0,0,.92-.52,4.23,4.23,0,0,0,.84-1.47" transform="translate(-114.46 -20.4)"/><path class="cls-1" d="M163.05,114.54a3.44,3.44,0,0,0-1.4,2.16.41.41,0,0,0,.07.4c.12.1.3,0,.44,0A3.59,3.59,0,0,0,163.7,116a1.44,1.44,0,0,0,.07-1.75" transform="translate(-114.46 -20.4)"/><path class="cls-1" d="M193.17,128.61a3.26,3.26,0,0,0-.2,2.76c.06.1.15.2.26.18s.14-.11.18-.19a2.29,2.29,0,0,0-.19-2.73,2.66,2.66,0,0,0-1.12-.44,12.09,12.09,0,0,0-3-.2" transform="translate(-114.46 -20.4)"/><path class="cls-1" d="M176.93,140.22a2,2,0,0,0-.2,1.41.26.26,0,0,0,.5.07,3.68,3.68,0,0,0,1-1.28,1.3,1.3,0,0,0-.31-1.5" transform="translate(-114.46 -20.4)"/><path class="cls-14" d="M188,115.17a2.63,2.63,0,0,0-.6-.73.87.87,0,0,0-.89-.11,1,1,0,0,0-.41.53,1.92,1.92,0,0,0,.52,2,.48.48,0,0,0,.45.16.55.55,0,0,0,.3-.28,8.6,8.6,0,0,0,.74-1.6" transform="translate(-114.46 -20.4)"/><path class="cls-15" d="M160.07,109.62c.07-.42-.48-.65-.89-.62a1.65,1.65,0,0,0-1.41.87.94.94,0,0,0,.49,1.24.79.79,0,0,0,.22.06,1.26,1.26,0,0,0,.92-.52,4.23,4.23,0,0,0,.84-1.47" transform="translate(-114.46 -20.4)"/><path class="cls-16" d="M163.05,114.54a3.44,3.44,0,0,0-1.4,2.16.41.41,0,0,0,.07.4c.12.1.3,0,.44,0A3.59,3.59,0,0,0,163.7,116a1.44,1.44,0,0,0,.07-1.75" transform="translate(-114.46 -20.4)"/><path class="cls-17" d="M193.17,128.61a3.26,3.26,0,0,0-.2,2.76c.06.1.15.2.26.18s.14-.11.18-.19a2.29,2.29,0,0,0-.19-2.73,2.66,2.66,0,0,0-1.12-.44,12.09,12.09,0,0,0-3-.2" transform="translate(-114.46 -20.4)"/><path class="cls-18" d="M176.93,140.22a2,2,0,0,0-.2,1.41.26.26,0,0,0,.5.07,3.68,3.68,0,0,0,1-1.28,1.3,1.3,0,0,0-.31-1.5" transform="translate(-114.46 -20.4)"/><polygon class="cls-1" points="45.17 76.23 146.66 12.81 150.21 17.84 150.81 20.19 45.54 76.86 45.17 76.23"/><polygon class="cls-1" points="45.54 76.86 147.27 15.15 150.81 20.19 46.24 78.05 45.54 76.86"/><polygon class="cls-19" points="45.54 76.86 147.27 15.15 150.81 20.19 46.24 78.05 45.54 76.86"/><polygon class="cls-1" points="45.41 74.79 138.85 0 142.96 4.59 143.83 6.85 45.85 75.37 45.41 74.79"/><polygon class="cls-1" points="45.85 75.37 139.73 2.26 143.83 6.85 46.69 76.46 45.85 75.37"/><polygon class="cls-20" points="45.85 75.37 139.73 2.26 143.83 6.85 46.69 76.46 45.85 75.37"/><path class="cls-21" d="M253.23,194.52A99.93,99.93,0,0,0,245,210.58c-1.28,3.32-6.4,29.64-34.65,30.94a35.73,35.73,0,0,0,12.56-15.89c3.16-6.32,1.72-20.34,6.59-24.07,3.27-2.51,10.75-3.18,14.8-4.38Z" transform="translate(-114.46 -20.4)"/><path class="cls-21" d="M161.18,223.57c2.67,7.28,6.5,14.87,13.51,18.18A26,26,0,0,1,157,238.17a33.58,33.58,0,0,1-12.28-13.5c-1.68-3.26-2.89-6.74-4.43-10.07a58.38,58.38,0,0,0-13.75-18.76,90.05,90.05,0,0,0,14.37,4.33c3.28.69,7.4.72,10.22,2.78,2.25,1.65,3.48,4.61,4.7,7A125.56,125.56,0,0,1,161.18,223.57Z" transform="translate(-114.46 -20.4)"/></svg>