<svg id="Layer_1" data-name="Layer 1" xmlns="http://www.w3.org/2000/svg" xmlns:xlink="http://www.w3.org/1999/xlink" viewBox="0 0 219.72 182.59"><defs><style>.cls-1{fill:url(#Gradient_bez_nazwy);}.cls-2{fill:#ff7a59;}.cls-3{fill:url(#Gradient_bez_nazwy_2);}.cls-4{fill:#fff;}.cls-5{fill:url(#Gradient_bez_nazwy_3);}.cls-6{fill:url(#Gradient_bez_nazwy_4);}.cls-7{fill:url(#Gradient_bez_nazwy_5);}.cls-8{fill:url(#Gradient_bez_nazwy_6);}.cls-9{fill:url(#Gradient_bez_nazwy_7);}.cls-10{fill:url(#Gradient_bez_nazwy_8);}.cls-11{fill:url(#Gradient_bez_nazwy_9);}.cls-12{fill:url(#Gradient_bez_nazwy_10);}.cls-13{fill:url(#Gradient_bez_nazwy_11);}.cls-14{fill:url(#Gradient_bez_nazwy_12);}.cls-15{fill:url(#Gradient_bez_nazwy_13);}.cls-16{fill:url(#Gradient_bez_nazwy_14);}.cls-17,.cls-18{fill:none;stroke-miterlimit:10;}.cls-17{stroke:url(#Gradient_bez_nazwy_15);}.cls-18{stroke:url(#Gradient_bez_nazwy_16);}.cls-19{fill:url(#Gradient_bez_nazwy_17);}.cls-20{fill:url(#Gradient_bez_nazwy_18);}.cls-21{fill:url(#Gradient_bez_nazwy_19);}.cls-22{fill:url(#Gradient_bez_nazwy_20);}</style><linearGradient id="Gradient_bez_nazwy" x1="176.26" y1="157.78" x2="175.88" y2="9.49" gradientTransform="matrix(1, 0, 0, -1, -66.75, 242.25)" gradientUnits="userSpaceOnUse"><stop offset="0.01"/><stop offset="0.13" stop-opacity="0.69"/><stop offset="1" stop-opacity="0"/></linearGradient><linearGradient id="Gradient_bez_nazwy_2" x1="177.2" y1="165.67" x2="176.82" y2="17.38" xlink:href="#Gradient_bez_nazwy"/><linearGradient id="Gradient_bez_nazwy_3" x1="221.7" y1="273.48" x2="229.02" y2="50.48" gradientTransform="matrix(1, 0, 0, -1, -43.89, 291.4)" xlink:href="#Gradient_bez_nazwy"/><linearGradient id="Gradient_bez_nazwy_4" x1="230.79" y1="171.1" x2="182.36" y2="5.92" gradientTransform="matrix(1, 0, 0, -1, -43.89, 291.4)" xlink:href="#Gradient_bez_nazwy"/><linearGradient id="Gradient_bez_nazwy_5" x1="146.89" y1="130.45" x2="288.61" y2="130.45" gradientTransform="matrix(1, 0, 0, -1, -43.89, 291.4)" gradientUnits="userSpaceOnUse"><stop offset="0.01" stop-color="#fff"/><stop offset="0.13" stop-color="#fff" stop-opacity="0.69"/><stop offset="1" stop-color="#68e1fd" stop-opacity="0"/></linearGradient><linearGradient id="Gradient_bez_nazwy_6" x1="230.79" y1="189.69" x2="182.36" y2="24.5" gradientTransform="matrix(1, 0, 0, -1, -43.89, 291.4)" xlink:href="#Gradient_bez_nazwy"/><linearGradient id="Gradient_bez_nazwy_7" x1="146.89" y1="149.06" x2="288.68" y2="149.06" xlink:href="#Gradient_bez_nazwy_5"/><linearGradient id="Gradient_bez_nazwy_8" x1="234.5" y1="151.67" x2="186.07" y2="-13.51" gradientTransform="matrix(1, -0.07, -0.07, -1, -39.63, 249.29)" xlink:href="#Gradient_bez_nazwy"/><linearGradient id="Gradient_bez_nazwy_9" x1="150.55" y1="110.97" x2="292.28" y2="110.97" gradientTransform="matrix(1, -0.07, -0.07, -1, -39.63, 249.29)" xlink:href="#Gradient_bez_nazwy_5"/><linearGradient id="Gradient_bez_nazwy_10" x1="174.43" y1="165.87" x2="194.51" y2="125.52" gradientTransform="matrix(1, 0, 0, -1, -43.89, 291.4)" xlink:href="#Gradient_bez_nazwy"/><linearGradient id="Gradient_bez_nazwy_11" x1="186.05" y1="283.25" x2="214.21" y2="137.96" gradientTransform="matrix(1, 0, 0, -1, -43.89, 291.4)" xlink:href="#Gradient_bez_nazwy"/><linearGradient id="Gradient_bez_nazwy_12" x1="131.52" y1="148.25" x2="204.73" y2="149.93" xlink:href="#Gradient_bez_nazwy_5"/><linearGradient id="Gradient_bez_nazwy_13" x1="212.77" y1="163.74" x2="196.81" y2="194.52" gradientTransform="matrix(1, 0, 0, -1, -43.89, 291.4)" gradientUnits="userSpaceOnUse"><stop offset="0.01"/><stop offset="0.13" stop-opacity="0.69"/><stop offset="0.36" stop-opacity="0.44"/><stop offset="1" stop-opacity="0"/></linearGradient><linearGradient id="Gradient_bez_nazwy_14" x1="228.51" y1="153.36" x2="212.56" y2="184.14" xlink:href="#Gradient_bez_nazwy_13"/><linearGradient id="Gradient_bez_nazwy_15" x1="201.03" y1="207.27" x2="242.23" y2="207.27" gradientTransform="matrix(1, 0, 0, -1, -43.89, 291.4)" xlink:href="#Gradient_bez_nazwy"/><linearGradient id="Gradient_bez_nazwy_16" x1="229.28" y1="227.08" x2="251.67" y2="227.08" gradientTransform="matrix(1, 0, 0, -1, -43.89, 291.4)" xlink:href="#Gradient_bez_nazwy"/><linearGradient id="Gradient_bez_nazwy_17" x1="181.95" y1="71.19" x2="160.56" y2="97.37" gradientTransform="matrix(1, 0, 0, -1, -43.89, 291.4)" xlink:href="#Gradient_bez_nazwy"/><linearGradient id="Gradient_bez_nazwy_18" x1="292.51" y1="69.45" x2="271.11" y2="95.63" gradientTransform="matrix(1, 0, 0, -1, -43.89, 291.4)" xlink:href="#Gradient_bez_nazwy"/><linearGradient id="Gradient_bez_nazwy_19" x1="256.61" y1="187.28" x2="248.73" y2="106.94" xlink:href="#Gradient_bez_nazwy_5"/><linearGradient id="Gradient_bez_nazwy_20" x1="201.02" y1="175.42" x2="214.81" y2="124.74" xlink:href="#Gradient_bez_nazwy_5"/></defs><title>toast</title><ellipse class="cls-1" cx="109.39" cy="132.42" rx="109.39" ry="50.17"/><ellipse class="cls-2" cx="110.33" cy="124.53" rx="109.39" ry="50.17"/><ellipse class="cls-3" cx="110.33" cy="124.53" rx="109.39" ry="50.17"/><ellipse class="cls-4" cx="110.33" cy="118.2" rx="109.39" ry="50.17"/><path class="cls-5" d="M111.59,179.84c-.69,2.39-2.8,4-4.56,5.77s-3.35,4.18-2.64,6.56,3.16,3.43,5.42,4.16c5.84,1.89,12.14,2.78,17.29,6.11,3.37,2.17,6,5.25,9.23,7.67,10.52,8,25.26,7.65,38,4.12s24.58-9.85,37.42-12.92c11.58-2.78,24.06-3,34.47-8.73,4.8-2.66,8.91-6.39,13-10.1a10.4,10.4,0,0,0,2.62-3.13c1-2.21.42-4.85-.72-7-2.74-5.21-8.22-8.53-13.91-10s-11.66-1.36-17.54-1.23L124.94,163.4c-4.41.1-15.87-3.15-18.72,1.61S113.37,173.71,111.59,179.84Z" transform="translate(-66.75 -61.75)"/><path class="cls-2" d="M100.67,160.76c2,2.65,5.31,3.88,8.19,5.54,9,5.17,14.13,14.83,20,23.34a120.48,120.48,0,0,0,20,22.36c1.79,1.55,3.72,3.1,6,3.55a14.66,14.66,0,0,0,5.4-.32c13.59-2.56,27.23-5.12,40.35-9.47,12-4,23.38-9.35,34.76-14.73,5.68-2.68,11.93-6,13.8-12,1.38-4.45,0-9.22-1.47-13.65-20.56-1.24-39.42-11.22-59.13-17.19-22.22-6.73-45.67-8.36-68.88-8.32-5.08,0-15.27-.49-18.7,4.24C98.18,148.08,97.74,156.88,100.67,160.76Z" transform="translate(-66.75 -61.75)"/><path class="cls-6" d="M100.67,160.76c2,2.65,5.31,3.88,8.19,5.54,9,5.17,14.13,14.83,20,23.34a120.48,120.48,0,0,0,20,22.36c1.79,1.55,3.72,3.1,6,3.55a14.66,14.66,0,0,0,5.4-.32c13.59-2.56,27.23-5.12,40.35-9.47,12-4,23.38-9.35,34.76-14.73,5.68-2.68,11.93-6,13.8-12,1.38-4.45,0-9.22-1.47-13.65-20.56-1.24-39.42-11.22-59.13-17.19-22.22-6.73-45.67-8.36-68.88-8.32-5.08,0-15.27-.49-18.7,4.24C98.18,148.08,97.74,156.88,100.67,160.76Z" transform="translate(-66.75 -61.75)"/><path class="cls-2" d="M106.32,140.57c-2.1,1-4.28,2.28-5.2,4.42-1.28,3,.47,6.49,3,8.47s5.75,2.88,8.71,4.15c8.29,3.54,14.93,10.11,20.38,17.29s9.88,15.07,15.12,22.4c1.64,2.3,3.43,4.61,5.91,6,3.15,1.72,6.93,1.66,10.52,1.56,4.58-.13,9.25-.28,13.58-1.8,3.91-1.37,7.35-3.8,10.84-6,17.54-11.17,37.6-17.78,55.57-28.24,1-.57,2.06-1.29,2.27-2.41a3.94,3.94,0,0,0-1.22-3c-4.32-5.24-9.9-9.27-15.42-13.24l-38.23-27.53a30.46,30.46,0,0,0-7.93-4.58A25.73,25.73,0,0,0,174,117.3c-12.87,1-25.24,5.13-37.06,10.14C126.85,131.66,116.22,135.78,106.32,140.57Z" transform="translate(-66.75 -61.75)"/><path class="cls-7" d="M108.42,141.21c-2,1-4.14,2.21-5,4.27-1.24,2.88.46,6.29,2.93,8.21s5.56,2.79,8.44,4c8,3.43,14.46,9.8,19.74,16.76s9.58,14.61,14.58,21.72c1.59,2.22,3.32,4.46,5.72,5.78,3,1.66,6.72,1.61,10.19,1.51,4.44-.13,9-.27,13.16-1.74,3.79-1.33,7.12-3.68,10.51-5.84,17-10.82,36.42-17.23,53.83-27.36.95-.56,2-1.25,2.2-2.34a3.83,3.83,0,0,0-1.19-2.92c-4.18-5.08-9.59-9-14.93-12.83l-37-26.67a29.58,29.58,0,0,0-7.68-4.44,24.91,24.91,0,0,0-9.87-.73c-12.46,1-24.45,5-35.9,9.82C128.32,132.58,118,136.57,108.42,141.21Z" transform="translate(-66.75 -61.75)"/><path class="cls-2" d="M100.67,142.17c2,2.66,5.31,3.89,8.19,5.55,9,5.17,14.13,14.82,20,23.34a120.48,120.48,0,0,0,20,22.36c1.79,1.55,3.72,3.1,6,3.55a14.66,14.66,0,0,0,5.4-.32c13.59-2.56,27.23-5.13,40.35-9.47,12-4,23.38-9.35,34.76-14.73,5.68-2.69,11.93-6,13.8-12,1.38-4.44,0-9.21-1.47-13.64-20.56-1.24-39.42-11.22-59.13-17.19-22.22-6.73-45.67-8.36-68.88-8.33-5.08,0-15.27-.48-18.7,4.25C98.18,129.5,97.74,138.29,100.67,142.17Z" transform="translate(-66.75 -61.75)"/><path class="cls-8" d="M100.67,142.17c2,2.66,5.31,3.89,8.19,5.55,9,5.17,14.13,14.82,20,23.34a120.48,120.48,0,0,0,20,22.36c1.79,1.55,3.72,3.1,6,3.55a14.66,14.66,0,0,0,5.4-.32c13.59-2.56,27.23-5.13,40.35-9.47,12-4,23.38-9.35,34.76-14.73,5.68-2.69,11.93-6,13.8-12,1.38-4.44,0-9.21-1.47-13.64-20.56-1.24-39.42-11.22-59.13-17.19-22.22-6.73-45.67-8.36-68.88-8.33-5.08,0-15.27-.48-18.7,4.25C98.18,129.5,97.74,138.29,100.67,142.17Z" transform="translate(-66.75 -61.75)"/><path class="cls-2" d="M106.32,122c-2.1,1-4.28,2.28-5.2,4.41-1.28,3,.47,6.49,3,8.47s5.75,2.88,8.71,4.15c8.29,3.55,14.93,10.12,20.38,17.3s9.9,15.08,15.14,22.4c1.64,2.3,3.43,4.61,5.91,6,3.15,1.72,6.93,1.67,10.52,1.57,4.58-.13,9.25-.28,13.58-1.8,3.91-1.37,7.35-3.8,10.84-6,17.54-11.17,37.6-17.78,55.57-28.24,1-.58,2.06-1.29,2.27-2.42a3.94,3.94,0,0,0-1.22-3c-4.32-5.24-9.9-9.27-15.42-13.24l-38.23-27.54a30.72,30.72,0,0,0-7.93-4.57,25.73,25.73,0,0,0-10.18-.76c-12.87,1-25.24,5.12-37.06,10.14C126.85,113.08,116.22,117.2,106.32,122Z" transform="translate(-66.75 -61.75)"/><path class="cls-9" d="M108.42,122.62c-2,1-4.14,2.21-5,4.28-1.24,2.87.46,6.29,2.93,8.21s5.56,2.79,8.44,4c8,3.43,14.46,9.8,19.74,16.75s9.57,14.6,14.65,21.7c1.59,2.23,3.32,4.47,5.72,5.78,3,1.67,6.72,1.62,10.19,1.52,4.44-.13,9-.27,13.16-1.74,3.79-1.33,7.12-3.69,10.51-5.85,17-10.82,36.42-17.22,53.83-27.35.95-.56,2-1.26,2.2-2.35a3.79,3.79,0,0,0-1.19-2.91c-4.18-5.08-9.59-9-14.93-12.83l-37-26.68a29.83,29.83,0,0,0-7.68-4.43,25.1,25.1,0,0,0-9.87-.74c-12.46,1-24.45,5-35.9,9.82C128.32,114,118,118,108.42,122.62Z" transform="translate(-66.75 -61.75)"/><path class="cls-2" d="M100.46,128c2.18,2.51,5.57,3.51,8.56,5,9.29,4.53,15.12,13.81,21.58,21.88a120.07,120.07,0,0,0,21.51,20.87c1.89,1.42,3.93,2.83,6.28,3.12a14.28,14.28,0,0,0,5.35-.7c13.38-3.49,26.81-7,39.6-12.26C215,161.12,226,154.9,237,148.78c5.48-3.08,11.48-6.82,12.93-12.93,1.07-4.53-.69-9.19-2.42-13.51-20.59.2-40.11-8.44-60.19-13-22.63-5.16-46.13-5.15-69.29-3.49-5.07.36-15.26.58-18.35,5.54C97.11,115.52,97.26,124.33,100.46,128Z" transform="translate(-66.75 -61.75)"/><path class="cls-10" d="M100.46,128c2.18,2.51,5.57,3.51,8.56,5,9.29,4.53,15.12,13.81,21.58,21.88a120.07,120.07,0,0,0,21.51,20.87c1.89,1.42,3.93,2.83,6.28,3.12a14.28,14.28,0,0,0,5.35-.7c13.38-3.49,26.81-7,39.6-12.26C215,161.12,226,154.9,237,148.78c5.48-3.08,11.48-6.82,12.93-12.93,1.07-4.53-.69-9.19-2.42-13.51-20.59.2-40.11-8.44-60.19-13-22.63-5.16-46.13-5.15-69.29-3.49-5.07.36-15.26.58-18.35,5.54C97.11,115.52,97.26,124.33,100.46,128Z" transform="translate(-66.75 -61.75)"/><path class="cls-2" d="M104.68,107.46c-2,1.16-4.11,2.58-4.88,4.77-1.06,3,.93,6.44,3.61,8.24s5.93,2.47,9,3.53c8.51,3,15.6,9.05,21.53,15.83s10.92,14.34,16.65,21.29c1.8,2.18,3.75,4.35,6.32,5.53,3.26,1.5,7,1.18,10.6.83,4.56-.45,9.21-.92,13.42-2.74,3.81-1.64,7.06-4.31,10.4-6.77,16.71-12.37,36.26-20.37,53.45-32.06,1-.64,2-1.43,2.1-2.57a4,4,0,0,0-1.43-2.92c-4.68-4.92-10.53-8.55-16.3-12.13l-40-24.79a30.26,30.26,0,0,0-8.22-4,25.49,25.49,0,0,0-10.22,0c-12.76,1.93-24.82,6.87-36.25,12.7C124.55,97.14,114.22,102,104.68,107.46Z" transform="translate(-66.75 -61.75)"/><path class="cls-11" d="M106.83,108c-2,1.12-4,2.49-4.73,4.62-1,3,.9,6.24,3.5,8s5.74,2.39,8.7,3.42c8.24,2.86,15.11,8.77,20.86,15.34s10.57,13.89,16.13,20.62c1.74,2.11,3.63,4.22,6.12,5.36,3.15,1.46,6.8,1.14,10.26.8,4.42-.43,8.93-.89,13-2.65,3.69-1.59,6.84-4.17,10.07-6.56,16.19-12,35.14-19.73,51.79-31.06.91-.62,1.91-1.39,2-2.49a3.77,3.77,0,0,0-1.38-2.82c-4.54-4.78-10.2-8.29-15.8-11.76l-38.81-24a29.48,29.48,0,0,0-8-3.88,24.63,24.63,0,0,0-9.9,0c-12.36,1.87-24,6.66-35.12,12.3C126.11,98,116.11,102.65,106.83,108Z" transform="translate(-66.75 -61.75)"/><path class="cls-12" d="M145.17,157.19c.51-2.91.66-5.88,1.45-8.73s2.36-5.63,5-7.06a9.22,9.22,0,0,0,11.39-.5c-2.23-2.81-6.41-3.49-9.82-2.37s-6.14,3.69-8.41,6.46a60,60,0,0,0-8.77,15.2c-1.88,4.51-5.12,10.69-4.63,15.72.66,6.62,5.42,2.57,7.24-1C141.39,169.24,144.11,163.4,145.17,157.19Z" transform="translate(-66.75 -61.75)"/><path class="cls-2" d="M123,174.73c.37,2.17,1.23,4.74,3.39,5.17,1.89.38,3.58-1.18,4.81-2.68a54.12,54.12,0,0,0,11.22-23.52c.7-3.45,1.1-7.07,2.94-10.06s5.71-5.12,8.91-3.66c1.49.67,2.59,2,4,2.88,5.4,3.45,12.33-.88,16.93-5.33a8.33,8.33,0,0,1,3-2.15c2-.67,4.13.28,6,1.31,3.74,2.11,7.28,4.66,11.31,6.17s8.81,1.79,12.42-.54c2.81-1.82,4.69-5.08,7.87-6.15,3.83-1.29,8.1,1.26,10.1,4.77s2.31,7.69,2.56,11.72l1.4,22.56c2.46.56,5-1.24,6.06-3.51s1.11-4.89,1.11-7.41v-12c0-7.48-.05-15.18-2.9-22.1s-9.24-12.92-16.72-13l7.45-3.81c.63-3.94-2.72-7.61-6.51-8.9s-7.9-.84-11.89-.69a79.29,79.29,0,0,1-22.7-2.41c-.11-6.64-2.89-13.39-8.15-17.45S162.6,79,157,82.59c-7.87,5-9.56,16.7-17.68,21.32-9.08,5.16-19.66-1.81-28.72,1.92-13.38,5.5,6.51,11.1,10.31,14.41,5.64,4.93,4.58,12.13,3.47,18.8C122.24,151.14,120.88,162.52,123,174.73Z" transform="translate(-66.75 -61.75)"/><path class="cls-2" d="M123,174.73c.37,2.17,1.23,4.74,3.39,5.17,1.89.38,3.58-1.18,4.81-2.68a54.12,54.12,0,0,0,11.22-23.52c.7-3.45,1.1-7.07,2.94-10.06s5.71-5.12,8.91-3.66c1.49.67,2.59,2,4,2.88,5.4,3.45,12.33-.88,16.93-5.33a8.33,8.33,0,0,1,3-2.15c2-.67,4.13.28,6,1.31,3.74,2.11,7.28,4.66,11.31,6.17s8.81,1.79,12.42-.54c2.81-1.82,4.69-5.08,7.87-6.15,3.83-1.29,8.1,1.26,10.1,4.77s2.31,7.69,2.56,11.72l1.4,22.56c2.46.56,5-1.24,6.06-3.51s1.11-4.89,1.11-7.41v-12c0-7.48-.05-15.18-2.9-22.1s-9.24-12.92-16.72-13l7.45-3.81c.63-3.94-2.72-7.61-6.51-8.9s-7.9-.84-11.89-.69a79.29,79.29,0,0,1-22.7-2.41c-.11-6.64-2.89-13.39-8.15-17.45S162.6,79,157,82.59c-7.87,5-9.56,16.7-17.68,21.32-9.08,5.16-19.66-1.81-28.72,1.92-13.38,5.5,6.51,11.1,10.31,14.41,5.64,4.93,4.58,12.13,3.47,18.8C122.24,151.14,120.88,162.52,123,174.73Z" transform="translate(-66.75 -61.75)"/><path class="cls-13" d="M143.17,103.65a11.94,11.94,0,0,0-3,2.53,4,4,0,0,0-.76,3.69,5,5,0,0,0,2,2.26,17.92,17.92,0,0,0,11.35,3.21c.7,1.41.17,3.2.87,4.61a5.61,5.61,0,0,0,2.71,2.24,32.93,32.93,0,0,0,10.19,3.54A15.6,15.6,0,0,0,177,123.81c1.82-1.16,3.31-2.78,5.07-4,1.25-.89,2.73-1.7,3.23-3.15.79-2.29-1.38-4.56-3.61-5.52-3.36-1.46-7.22-1.46-10.58-2.92-2.47-1.06-4.55-2.85-6.94-4.06-4.93-2.48-10.76-2.31-16.23-1.58" transform="translate(-66.75 -61.75)"/><path class="cls-14" d="M109.5,108.4a2.75,2.75,0,0,0,.54,3,8,8,0,0,0,2.74,1.76l7.37,3.42a8.94,8.94,0,0,1,2.77,1.72,8,8,0,0,1,1.77,4.71c1.14,9-.86,18-2.21,27s-2,18.46,1.74,26.74c.35.78,1,1.68,1.81,1.55a2.06,2.06,0,0,0,.93-.5,27.78,27.78,0,0,0,6.47-7.64c-3.37-3.07-3.77-8.15-3.73-12.71a148.84,148.84,0,0,1,2.86-27.77c.75-3.79,1.62-7.89,0-11.41-.67-1.44-1.6-2.67-1.91-4.26-.35-1.79-.07-3.21-1.12-4.83a5.79,5.79,0,0,0-4.79-2.91c-2.17-.08-4.36.63-6.53.74S110.87,106,109.5,108.4Z" transform="translate(-66.75 -61.75)"/><path class="cls-2" d="M164.69,101.82A11.16,11.16,0,0,1,153.53,113h0a11.16,11.16,0,1,1,9.83-16.44A11.06,11.06,0,0,1,164.69,101.82Z" transform="translate(-66.75 -61.75)"/><path class="cls-15" d="M164.69,101.82A11.16,11.16,0,0,1,153.53,113h0a11.22,11.22,0,0,1-3.1-.44,11.16,11.16,0,0,1,12.93-16A11.06,11.06,0,0,1,164.69,101.82Z" transform="translate(-66.75 -61.75)"/><path class="cls-2" d="M180.46,112.19a11.16,11.16,0,0,1-11.11,11.21h0A11.16,11.16,0,1,1,179.13,107,11,11,0,0,1,180.46,112.19Z" transform="translate(-66.75 -61.75)"/><path class="cls-16" d="M180.46,112.19a11.16,11.16,0,0,1-11.11,11.21h0a11.22,11.22,0,0,1-3.1-.44,11.16,11.16,0,0,1,12.93-16A11,11,0,0,1,180.46,112.19Z" transform="translate(-66.75 -61.75)"/><path class="cls-17" d="M157.57,92.61a60.48,60.48,0,0,1,39-28.29c-8.39,7.44-17,15.1-22.19,25a78.3,78.3,0,0,0-3.8,8.71c-.81,2.16-1.61,4.47-1.13,6.72" transform="translate(-66.75 -61.75)"/><path class="cls-18" d="M185.49,62.24q11.07,2.23,22.2,4.16" transform="translate(-66.75 -61.75)"/><circle class="cls-2" cx="46.42" cy="130.68" r="17.3"/><path class="cls-19" d="M125.57,191a9.3,9.3,0,0,1-5.55,5.31,7.15,7.15,0,0,0-2.45.93c-1.15.91-1.24,2.6-2,3.84-1,1.63-3.08,2.29-5,2.33-1.1,0-2.35-.06-3.11.73a2.34,2.34,0,0,0,.18,3.09,5.08,5.08,0,0,0,3,1.38,15.52,15.52,0,0,0,11.68-3.17,21.21,21.21,0,0,0,6.93-10.08,16.33,16.33,0,0,0,1-6.57c-.11-1.34-.52-4.92-2.59-4C126,185.61,126.24,189.5,125.57,191Z" transform="translate(-66.75 -61.75)"/><circle class="cls-2" cx="156.98" cy="132.42" r="17.3"/><path class="cls-20" d="M236.11,192.78a9.41,9.41,0,0,1-5.55,5.31,7.15,7.15,0,0,0-2.45.93c-1.15.91-1.25,2.6-2,3.84-1,1.63-3.08,2.29-5,2.33-1.1,0-2.35-.06-3.11.73a2.34,2.34,0,0,0,.18,3.09,5.08,5.08,0,0,0,3,1.38,15.52,15.52,0,0,0,11.68-3.17,21.22,21.22,0,0,0,7-10.11,16.33,16.33,0,0,0,1-6.57c-.11-1.34-.52-4.92-2.6-3.95C236.6,187.4,236.8,191.24,236.11,192.78Z" transform="translate(-66.75 -61.75)"/><path class="cls-2" d="M203.79,141.85c4.5-.54,8.64-2.67,12.55-5,2.18-1.28,4.91-2.64,7.07-1.33,1.8,1.08,2.21,3.45,2.41,5.54a145.34,145.34,0,0,1,.6,15.89c-.09,5-.38,10.3,2,14.74a3.25,3.25,0,0,0,2.11,1.92c1.82.27,2.79-2.07,3-3.89.9-7.14.41-14.37-.08-21.55-.28-4.14-.6-8.42-2.58-12.07a14.86,14.86,0,0,0-13.31-7.58c-4.9.19-9.36,2.82-14.16,3.85a22.11,22.11,0,0,1-10.63-.38c-2-.56-7.33-3.58-9.25-2.11-1.65,1.28-.17,4,.8,5.32C188.18,140.28,197.79,142.57,203.79,141.85Z" transform="translate(-66.75 -61.75)"/><path class="cls-21" d="M203.79,141.85c4.5-.54,8.64-2.67,12.55-5,2.18-1.28,4.91-2.64,7.07-1.33,1.8,1.08,2.21,3.45,2.41,5.54a145.34,145.34,0,0,1,.6,15.89c-.09,5-.38,10.3,2,14.74a3.25,3.25,0,0,0,2.11,1.92c1.82.27,2.79-2.07,3-3.89.9-7.14.41-14.37-.08-21.55-.28-4.14-.6-8.42-2.58-12.07a14.86,14.86,0,0,0-13.31-7.58c-4.9.19-9.36,2.82-14.16,3.85a22.11,22.11,0,0,1-10.63-.38c-2-.56-7.33-3.58-9.25-2.11-1.65,1.28-.17,4,.8,5.32C188.18,140.28,197.79,142.57,203.79,141.85Z" transform="translate(-66.75 -61.75)"/><path class="cls-22" d="M165.86,139a10.41,10.41,0,0,1-3.61,2c-3.7.87-7-2.55-10.67-3.4a8.33,8.33,0,0,0-8.52,3.36,15.53,15.53,0,0,1,3.84-7,9,9,0,0,1,7.3-2.69c1.69.22,3.26,1,4.94,1.31,3.3.55,6.57-.92,9.59-2.35l6.47-3.07a5.76,5.76,0,0,1,3.91-.76c5.11,1.39-.36,4.46-2.05,5.24C173.11,133.4,169.33,136.4,165.86,139Z" transform="translate(-66.75 -61.75)"/></svg>